# xmcd
#
# Track frame offsets:
#	150
#	10465
#	21892
#	33455
#	43250
#	52602
#	65640
#	76722
#	88650
#	98565
#	109742
#	124322
#	134340
#	143577
#	153952
#
# Disc length: 2198 seconds
#
# Revision: 2
# Processed by: cddbd v1.5.2PL0 Copyright (c) Steve Scherf et al.
# Submitted via: EasyCDDAExtractor 10.2.0.1
#
DISCID=bc08940f
DTITLE=Various Artist - La musica de todos Vol 11
DYEAR=1998
DGENRE=Revival
TTITLE0=Palito Ortega - Bienvenido amor
TTITLE1=Donald - Celosa, celosa, celosa
TTITLE2=Juan y Juan - Ella es una chica genial
TTITLE3=Bobby Capo y Violeta Rivas - Llorando me dormi
TTITLE4=Lalo Fransen - Fotonovela
TTITLE5=Palito Ortega - Vestida de novia
TTITLE6=Silvana Di Lorenzo - Tu eres esa chica enamora
TTITLE7=Raul Lavie - Dame felicidad
TTITLE8=Juan y Juan - Sera porque estas tremenda
TTITLE9=Violeta Rivas - La tierra
TTITLE10=Los Iracundos - Es la lluvia que cae
TTITLE11=Nicky Jones - Papa oom mow mow
TTITLE12=La Joven Guardia - Genios diplomados en maldad
TTITLE13=Cachita Galan - Soplame un beso
TTITLE14=Chico Novarro - Palomita
EXTD=
EXTT0=
EXTT1=
EXTT2=
EXTT3=
EXTT4=
EXTT5=
EXTT6=
EXTT7=
EXTT8=
EXTT9=
EXTT10=
EXTT11=
EXTT12=
EXTT13=
EXTT14=
PLAYORDER=
